# 3ds Max Wavefront OBJ Exporter v0.97b - (c)2007 guruware
# File Created: 21.01.2015 13:35:02

mtllib clock.mtl

#
# object Cylinder001
#

v  8.1503 0.0000 -20.7803
v  7.6049 0.0000 -24.2239
v  6.7888 5.2504 -23.9588
v  7.2922 5.2504 -20.7803
v  6.0220 0.0000 -27.3305
v  5.3278 5.2504 -26.8261
v  3.5566 0.0000 -29.7959
v  3.0523 5.2504 -29.1017
v  0.4501 0.0000 -31.3788
v  0.1849 5.2504 -30.5627
v  -2.9936 0.0000 -31.9242
v  -2.9936 5.2504 -31.0661
v  -6.4373 0.0000 -31.3788
v  -6.1721 5.2504 -30.5627
v  -9.5438 0.0000 -29.7959
v  -9.0394 5.2504 -29.1017
v  -12.0092 0.0000 -27.3305
v  -11.3150 5.2504 -26.8261
v  -13.5921 0.0000 -24.2239
v  -12.7760 5.2504 -23.9588
v  -14.1375 0.0000 -20.7803
v  -13.2794 5.2504 -20.7803
v  -13.5921 0.0000 -17.3366
v  -12.7760 5.2504 -17.6018
v  -12.0092 0.0000 -14.2301
v  -11.3150 5.2504 -14.7344
v  -9.5438 0.0000 -11.7647
v  -9.0394 5.2504 -12.4589
v  -6.4372 0.0000 -10.1818
v  -6.1721 5.2504 -10.9979
v  -2.9936 0.0000 -9.6364
v  -2.9936 5.2504 -10.4945
v  0.4501 0.0000 -10.1818
v  0.1849 5.2504 -10.9979
v  3.5566 0.0000 -11.7647
v  3.0523 5.2504 -12.4589
v  6.0220 0.0000 -14.2301
v  5.3278 5.2504 -14.7344
v  7.6049 0.0000 -17.3366
v  6.7888 5.2504 -17.6018
v  6.2374 4.6701 -23.7796
v  4.8588 4.6701 -26.4854
v  2.7115 4.6701 -28.6327
v  6.2374 4.6701 -17.7810
v  0.0058 4.6701 -30.0113
v  -2.9936 4.6701 -30.4864
v  -8.6987 4.6701 -28.6327
v  -5.9929 4.6701 -30.0113
v  -10.8460 4.6701 -26.4854
v  -12.2246 4.6701 -23.7796
v  -12.2246 4.6701 -17.7809
v  -12.6997 4.6701 -20.7803
v  -10.8460 4.6701 -15.0752
v  -8.6987 4.6701 -12.9279
v  -2.9936 4.6701 -11.0742
v  -5.9929 4.6701 -11.5493
v  0.0058 4.6701 -11.5493
v  2.7115 4.6701 -12.9279
v  4.8588 4.6701 -15.0752
v  6.7125 4.6701 -20.7803
v  6.2374 5.2504 -23.7796
v  6.7125 5.2504 -20.7803
v  4.8588 5.2504 -26.4854
v  2.7115 5.2504 -28.6327
v  0.0058 5.2504 -30.0113
v  -2.9936 5.2504 -30.4864
v  -5.9929 5.2504 -30.0113
v  -8.6987 5.2504 -28.6327
v  -10.8460 5.2504 -26.4854
v  -12.2246 5.2504 -23.7796
v  -12.6997 5.2504 -20.7803
v  -12.2246 5.2504 -17.7809
v  -10.8460 5.2504 -15.0752
v  -8.6987 5.2504 -12.9279
v  -5.9929 5.2504 -11.5493
v  -2.9936 5.2504 -11.0742
v  0.0058 5.2504 -11.5493
v  2.7115 5.2504 -12.9279
v  4.8588 5.2504 -15.0752
v  6.2374 5.2504 -17.7810
# 80 vertices

vn 0.9869 0.1613 -0.0000
vn 0.9386 0.1613 -0.3050
vn 0.7984 0.1613 -0.5801
vn 0.5801 0.1613 -0.7984
vn 0.3050 0.1613 -0.9386
vn -0.0000 0.1613 -0.9869
vn -0.3050 0.1613 -0.9386
vn -0.5801 0.1613 -0.7984
vn -0.7984 0.1613 -0.5801
vn -0.9386 0.1613 -0.3050
vn -0.9869 0.1613 0.0000
vn -0.9386 0.1613 0.3050
vn -0.7984 0.1613 0.5801
vn -0.5801 0.1613 0.7984
vn -0.3050 0.1613 0.9386
vn 0.0000 0.1613 0.9869
vn 0.3050 0.1613 0.9386
vn 0.5801 0.1613 0.7984
vn 0.7984 0.1613 0.5801
vn 0.9386 0.1613 0.3050
vn 0.0000 -1.0000 -0.0000
vn 0.0000 1.0000 -0.0000
vn -1.0000 0.0000 0.0000
vn -0.9511 0.0000 0.3090
vn -0.8090 0.0000 0.5878
vn -0.5878 0.0000 0.8090
vn -0.3090 0.0000 0.9511
vn 0.0000 0.0000 1.0000
vn 0.3090 0.0000 0.9511
vn 0.5878 0.0000 0.8090
vn 0.8090 0.0000 0.5878
vn 0.9511 0.0000 0.3090
vn 1.0000 0.0000 -0.0000
vn 0.9511 0.0000 -0.3090
vn 0.8090 0.0000 -0.5878
vn 0.5878 0.0000 -0.8090
vn 0.3090 0.0000 -0.9511
vn -0.0000 0.0000 -1.0000
vn -0.3090 0.0000 -0.9511
vn -0.5878 0.0000 -0.8090
vn -0.8090 0.0000 -0.5878
vn -0.9511 0.0000 -0.3090
# 42 vertex normals

vt 0.0105 0.8625 0.5000
vt 0.0597 0.8625 0.5000
vt 0.0597 0.9560 0.4615
vt 0.0105 0.9560 0.4615
vt 0.1089 0.8625 0.5000
vt 0.1089 0.9560 0.4615
vt 0.1581 0.8625 0.5000
vt 0.1581 0.9560 0.4615
vt 0.2074 0.8625 0.5000
vt 0.2074 0.9560 0.4615
vt 0.2566 0.8625 0.5000
vt 0.2566 0.9560 0.4615
vt 0.3058 0.8625 0.5000
vt 0.3058 0.9560 0.4615
vt 0.3550 0.8625 0.5000
vt 0.3550 0.9560 0.4615
vt 0.4043 0.8625 0.5000
vt 0.4043 0.9560 0.4615
vt 0.4535 0.8625 0.5000
vt 0.4535 0.9560 0.4615
vt 0.5027 0.8625 0.5000
vt 0.5027 0.9560 0.4615
vt 0.5519 0.8625 0.5000
vt 0.5519 0.9560 0.4615
vt 0.6012 0.8625 0.5000
vt 0.6012 0.9560 0.4615
vt 0.6504 0.8625 0.5000
vt 0.6504 0.9560 0.4615
vt 0.6996 0.8625 0.5000
vt 0.6996 0.9560 0.4615
vt 0.7488 0.8625 0.5000
vt 0.7488 0.9560 0.4615
vt 0.7981 0.8625 0.5000
vt 0.7981 0.9560 0.4615
vt 0.8473 0.8625 0.5000
vt 0.8473 0.9560 0.4615
vt 0.8965 0.8625 0.5000
vt 0.8965 0.9560 0.4615
vt 0.9457 0.8625 0.5000
vt 0.9457 0.9560 0.4615
vt 0.9950 0.8625 0.5000
vt 0.9950 0.9560 0.4615
vt 0.1153 0.7576 0.0000
vt 0.0822 0.7161 0.0000
vt 0.0635 0.6664 0.0000
vt 0.2107 0.8009 0.0000
vt 0.0611 0.6135 0.0000
vt 0.0752 0.5623 0.0000
vt 0.1459 0.4850 0.0000
vt 0.1044 0.5180 0.0000
vt 0.1955 0.4663 0.0000
vt 0.2485 0.4639 0.0000
vt 0.3439 0.5072 0.0000
vt 0.2997 0.4780 0.0000
vt 0.3770 0.5487 0.0000
vt 0.3957 0.5983 0.0000
vt 0.3840 0.7024 0.0000
vt 0.3981 0.6513 0.0000
vt 0.3548 0.7467 0.0000
vt 0.3133 0.7798 0.0000
vt 0.2637 0.7985 0.0000
vt 0.1595 0.7868 0.0000
vt 0.6143 0.6155 0.0000
vt 0.5236 0.5856 0.0000
vt 0.4465 0.5291 0.0000
vt 0.8009 0.5867 0.0000
vt 0.3907 0.4516 0.0000
vt 0.3615 0.3606 0.0000
vt 0.3917 0.1743 0.0000
vt 0.3619 0.2651 0.0000
vt 0.4482 0.0973 0.0000
vt 0.5257 0.0414 0.0000
vt 0.7122 0.0126 0.0000
vt 0.6167 0.0122 0.0000
vt 0.8030 0.0425 0.0000
vt 0.8801 0.0990 0.0000
vt 0.9651 0.2675 0.0000
vt 0.9359 0.1765 0.0000
vt 0.9647 0.3630 0.0000
vt 0.9348 0.4537 0.0000
vt 0.8784 0.5308 0.0000
vt 0.7099 0.6158 0.0000
vt 0.0180 0.6637 0.0000
vt 0.0183 0.5971 0.0000
vt 0.0301 0.5990 0.0000
vt 0.0299 0.6619 0.0000
vt 0.0391 0.5338 0.0000
vt 0.0498 0.5393 0.0000
vt 0.0785 0.4801 0.0000
vt 0.0869 0.4886 0.0000
vt 0.1325 0.4412 0.0000
vt 0.1379 0.4519 0.0000
vt 0.1960 0.4208 0.0000
vt 0.1978 0.4327 0.0000
vt 0.2626 0.4211 0.0000
vt 0.2606 0.4329 0.0000
vt 0.3258 0.4419 0.0000
vt 0.3203 0.4526 0.0000
vt 0.3796 0.4813 0.0000
vt 0.3711 0.4897 0.0000
vt 0.4185 0.5353 0.0000
vt 0.4078 0.5407 0.0000
vt 0.4388 0.5988 0.0000
vt 0.4270 0.6006 0.0000
vt 0.4386 0.6654 0.0000
vt 0.4267 0.6635 0.0000
vt 0.4178 0.7286 0.0000
vt 0.4071 0.7232 0.0000
vt 0.3784 0.7824 0.0000
vt 0.3699 0.7739 0.0000
vt 0.3243 0.8213 0.0000
vt 0.3189 0.8106 0.0000
vt 0.2609 0.8417 0.0000
vt 0.2591 0.8298 0.0000
vt 0.1943 0.8414 0.0000
vt 0.1962 0.8296 0.0000
vt 0.1310 0.8206 0.0000
vt 0.1365 0.8099 0.0000
vt 0.0773 0.7812 0.0000
vt 0.0858 0.7727 0.0000
vt 0.0384 0.7272 0.0000
vt 0.0491 0.7218 0.0000
vt 0.6055 0.9678 0.0000
vt 0.6580 0.9678 0.0000
vt 0.6580 0.9780 0.0000
vt 0.6055 0.9780 0.0000
vt 0.7053 0.9678 0.0000
vt 0.7053 0.9780 0.0000
vt 0.7428 0.9678 0.0000
vt 0.7428 0.9780 0.0000
vt 0.7902 0.9678 0.0000
vt 0.7902 0.9780 0.0000
vt 0.8426 0.9678 0.0000
vt 0.8426 0.9780 0.0000
vt 0.8951 0.9678 0.0000
vt 0.8951 0.9780 0.0000
vt 0.9424 0.9678 0.0000
vt 0.9424 0.9780 0.0000
vt 0.9800 0.9678 0.0000
vt 0.9800 0.9780 0.0000
vt 0.0315 0.9678 0.0000
vt 0.0788 0.9678 0.0000
vt 0.0788 0.9780 0.0000
vt 0.0315 0.9780 0.0000
vt 0.1312 0.9678 0.0000
vt 0.1312 0.9780 0.0000
vt 0.1837 0.9678 0.0000
vt 0.1837 0.9780 0.0000
vt 0.2310 0.9678 0.0000
vt 0.2310 0.9780 0.0000
vt 0.2686 0.9678 0.0000
vt 0.2686 0.9780 0.0000
vt 0.3159 0.9678 0.0000
vt 0.3159 0.9780 0.0000
vt 0.3684 0.9678 0.0000
vt 0.3684 0.9780 0.0000
vt 0.4208 0.9678 0.0000
vt 0.4208 0.9780 0.0000
vt 0.4682 0.9678 0.0000
vt 0.4682 0.9780 0.0000
vt 0.5057 0.9678 0.0000
vt 0.5057 0.9780 0.0000
vt 0.5530 0.9678 0.0000
vt 0.5530 0.9780 0.0000
# 164 texture coords

g Cylinder001
usemtl wire_153228214
s 1
f 1/1/1 2/2/2 3/3/2 4/4/1 
f 2/2/2 5/5/3 6/6/3 3/3/2 
f 5/5/3 7/7/4 8/8/4 6/6/3 
f 7/7/4 9/9/5 10/10/5 8/8/4 
f 9/9/5 11/11/6 12/12/6 10/10/5 
f 11/11/6 13/13/7 14/14/7 12/12/6 
f 13/13/7 15/15/8 16/16/8 14/14/7 
f 15/15/8 17/17/9 18/18/9 16/16/8 
f 17/17/9 19/19/10 20/20/10 18/18/9 
f 19/19/10 21/21/11 22/22/11 20/20/10 
f 21/21/11 23/23/12 24/24/12 22/22/11 
f 23/23/12 25/25/13 26/26/13 24/24/12 
f 25/25/13 27/27/14 28/28/14 26/26/13 
f 27/27/14 29/29/15 30/30/15 28/28/14 
f 29/29/15 31/31/16 32/32/16 30/30/15 
f 31/31/16 33/33/17 34/34/17 32/32/16 
f 33/33/17 35/35/18 36/36/18 34/34/17 
f 35/35/18 37/37/19 38/38/19 36/36/18 
f 37/37/19 39/39/20 40/40/20 38/38/19 
f 39/39/20 1/41/1 4/42/1 40/40/20 
s off
f 37/43/21 35/44/21 33/45/21 1/46/21 
f 33/45/21 31/47/21 29/48/21 25/49/21 
f 29/48/21 27/50/21 25/49/21 
f 25/49/21 23/51/21 21/52/21 17/53/21 
f 21/52/21 19/54/21 17/53/21 
f 17/53/21 15/55/21 13/56/21 9/57/21 
f 13/56/21 11/58/21 9/57/21 
f 9/57/21 7/59/21 5/60/21 1/46/21 
f 5/60/21 2/61/21 1/46/21 
f 17/53/21 9/57/21 1/46/21 25/49/21 
f 33/45/21 25/49/21 1/46/21 
f 39/62/21 37/43/21 1/46/21 
f 41/63/22 42/64/22 43/65/22 44/66/22 
f 43/65/22 45/67/22 46/68/22 47/69/22 
f 46/68/22 48/70/22 47/69/22 
f 47/69/22 49/71/22 50/72/22 51/73/22 
f 50/72/22 52/74/22 51/73/22 
f 51/73/22 53/75/22 54/76/22 55/77/22 
f 54/76/22 56/78/22 55/77/22 
f 55/77/22 57/79/22 58/80/22 44/66/22 
f 58/80/22 59/81/22 44/66/22 
f 51/73/22 55/77/22 44/66/22 47/69/22 
f 43/65/22 47/69/22 44/66/22 
f 60/82/22 41/63/22 44/66/22 
s 2
f 4/83/22 3/84/22 61/85/22 62/86/22 
f 3/84/22 6/87/22 63/88/22 61/85/22 
f 6/87/22 8/89/22 64/90/22 63/88/22 
f 8/89/22 10/91/22 65/92/22 64/90/22 
f 10/91/22 12/93/22 66/94/22 65/92/22 
f 12/93/22 14/95/22 67/96/22 66/94/22 
f 14/95/22 16/97/22 68/98/22 67/96/22 
f 16/97/22 18/99/22 69/100/22 68/98/22 
f 18/99/22 20/101/22 70/102/22 69/100/22 
f 20/101/22 22/103/22 71/104/22 70/102/22 
f 22/103/22 24/105/22 72/106/22 71/104/22 
f 24/105/22 26/107/22 73/108/22 72/106/22 
f 26/107/22 28/109/22 74/110/22 73/108/22 
f 28/109/22 30/111/22 75/112/22 74/110/22 
f 30/111/22 32/113/22 76/114/22 75/112/22 
f 32/113/22 34/115/22 77/116/22 76/114/22 
f 34/115/22 36/117/22 78/118/22 77/116/22 
f 36/117/22 38/119/22 79/120/22 78/118/22 
f 38/119/22 40/121/22 80/122/22 79/120/22 
f 40/121/22 4/83/22 62/86/22 80/122/22 
s 1
f 62/123/23 61/124/24 41/125/24 60/126/23 
f 61/124/24 63/127/25 42/128/25 41/125/24 
f 63/127/25 64/129/26 43/130/26 42/128/25 
f 64/129/26 65/131/27 45/132/27 43/130/26 
f 65/131/27 66/133/28 46/134/28 45/132/27 
f 66/133/28 67/135/29 48/136/29 46/134/28 
f 67/135/29 68/137/30 47/138/30 48/136/29 
f 68/137/30 69/139/31 49/140/31 47/138/30 
f 69/141/31 70/142/32 50/143/32 49/144/31 
f 70/142/32 71/145/33 52/146/33 50/143/32 
f 71/145/33 72/147/34 51/148/34 52/146/33 
f 72/147/34 73/149/35 53/150/35 51/148/34 
f 73/149/35 74/151/36 54/152/36 53/150/35 
f 74/151/36 75/153/37 56/154/37 54/152/36 
f 75/153/37 76/155/38 55/156/38 56/154/37 
f 76/155/38 77/157/39 57/158/39 55/156/38 
f 77/157/39 78/159/40 58/160/40 57/158/39 
f 78/159/40 79/161/41 59/162/41 58/160/40 
f 79/161/41 80/163/42 44/164/42 59/162/41 
f 80/163/42 62/123/23 60/126/23 44/164/42 
# 72 polygons - 12 triangles

